<svg version="1.1" xmlns="http://www.w3.org/2000/svg" xmlns:xlink="http://www.w3.org/1999/xlink" width="40.15592" height="24.53526" viewBox="0,0,40.15592,24.53526"><g transform="translate(-226.74305,-168.15343)"><g data-paper-data="{&quot;isPaintingLayer&quot;:true}" fill-rule="nonzero" stroke-linejoin="miter" stroke-miterlimit="10" stroke-dasharray="" stroke-dashoffset="0" style="mix-blend-mode: normal"><path d="M251.82869,180.00001c0,6.1595 -5.29588,11.15276 -11.82869,11.15276c-6.5328,0 -11.82869,-4.99326 -11.82869,-11.15276c0,-6.1595 5.29588,-11.15276 11.82869,-11.15276c6.5328,0 11.82869,4.99326 11.82869,11.15276z" fill="#43e000" stroke="#000000" stroke-width="1" stroke-linecap="butt"/><path d="M239.19046,169.16602l27.20851,-0.33591" fill="none" stroke="#000000" stroke-width="1" stroke-linecap="round"/><path d="M239.52637,191.33592l26.20079,0.67182" fill="none" stroke="#000000" stroke-width="1" stroke-linecap="round"/><path d="M240.03438,170.22494c-0.43102,1.43674 -1.86776,1.00572 -1.86776,1.00572l-0.01366,-0.54625c-1.1006,0.65607 -2.39963,1.06959 -3.68031,1.10951c0,0 -0.09159,0 -0.22951,-0.02263c-0.01921,0.49364 -0.29164,0.88283 -0.29164,0.88283c-0.60809,0.83064 -1.3813,1.56116 -2.24284,2.13607c-0.03513,0.07316 -0.08607,0.16716 -0.15499,0.26669c0.02874,0.11595 0.04398,0.23722 0.04398,0.36205c0,0.52263 -0.26728,0.98283 -0.67261,1.25137c-0.12768,0.49411 -0.50084,0.8895 -0.98164,1.04828c-0.08039,0.48232 -0.16077,0.96464 -0.24116,1.44695l0.18165,-0.39334c0,0 0.64407,1.07344 -0.2252,1.84744c0.19969,0.28257 0.26918,0.5605 0.26918,0.5605c0.24719,0.9919 0.45984,1.99351 0.62555,3.00223l0.2389,0.70928c0.88612,0.00512 1.29588,0.9066 1.29588,0.9066c0.38731,0.91741 1.27466,2.55874 2.0804,2.8552c0.18898,-0.11319 1.29348,-0.70452 2.05213,0.43345c0.0933,0.13995 0.16045,0.27468 0.20613,0.40358c0.26541,-0.02212 0.53082,-0.04423 0.79622,-0.06635l0.55824,0.20824c0.27415,-0.35774 0.7058,-0.58843 1.19133,-0.58843c0.82843,0 1.5,0.67157 1.5,1.5c0,0.82843 -0.67157,1.5 -1.5,1.5c-0.01038,0 -0.02074,-0.00011 -0.03107,-0.00032c-0.71594,1.02111 -1.71905,0.56095 -1.98444,0.41306c-0.32831,0.02736 -0.65662,0.05472 -0.98492,0.08208c0,0 -1.14726,0.0956 -1.51539,-0.88577c-2.52945,-0.31225 -3.73245,-1.86746 -4.84569,-4.09216c-1.06658,0.06727 -1.43652,-1.04255 -1.43652,-1.04255l-0.53274,-1.61276c-0.16997,-1.00646 -0.37609,-2.00774 -0.62445,-2.99777c0,0 -0.22504,-0.90016 0.38683,-1.46153c-0.06119,-0.07776 -0.09286,-0.13053 -0.09286,-0.13053l-0.56835,-1.64334c0.08333,-0.5 0.16667,-1 0.25,-1.5c0,0 0.16267,-0.97602 1.01648,-1.21051c0.08643,-0.38237 0.3189,-0.70936 0.63572,-0.91926c0.04693,-0.18164 0.12704,-0.34994 0.23348,-0.49805c-0.08812,-0.44791 0.04589,-0.84993 0.04589,-0.84993l0.82975,-1.2175c0.69215,-0.34896 1.31642,-0.89381 1.73943,-1.54335c0,0 0.5848,-0.83542 1.47886,-0.64643c0.00441,-1.49337 1.49999,-1.49337 1.49999,-1.49337c0.72107,0.03992 1.4803,-0.22317 2.06969,-0.64049l2.48634,0.20375c0,0 1.43674,0.43102 1.00572,1.86776zM234.21996,188.67051c0.12914,0.03836 0.25584,0.04071 0.37768,-0.00159z" fill="#000000" stroke="none" stroke-width="0.5" stroke-linecap="butt"/><path d="M245.72264,175.91892c0,-0.82843 0.67157,-1.5 1.5,-1.5c0.82843,0 1.5,0.67157 1.5,1.5c0,0.82843 -0.67157,1.5 -1.5,1.5c-0.82843,0 -1.5,-0.67157 -1.5,-1.5z" fill="#000000" stroke="none" stroke-width="0.5" stroke-linecap="butt"/><path d="M245.97264,183.04392c0,-0.82843 0.67157,-1.5 1.5,-1.5c0.82843,0 1.5,0.67157 1.5,1.5c0,0.82843 -0.67157,1.5 -1.5,1.5c-0.82843,0 -1.5,-0.67157 -1.5,-1.5z" fill="#000000" stroke="none" stroke-width="0.5" stroke-linecap="butt"/><path d="M239.22264,174.04392c0,-0.82843 0.67157,-1.5 1.5,-1.5c0.82843,0 1.5,0.67157 1.5,1.5c0,0.82843 -0.67157,1.5 -1.5,1.5c-0.82843,0 -1.5,-0.67157 -1.5,-1.5z" fill="#1aa000" stroke="none" stroke-width="0.5" stroke-linecap="butt"/><path d="M235.84764,176.91892c0,-0.82843 0.67157,-1.5 1.5,-1.5c0.82843,0 1.5,0.67157 1.5,1.5c0,0.82843 -0.67157,1.5 -1.5,1.5c-0.82843,0 -1.5,-0.67157 -1.5,-1.5z" fill="#1aa000" stroke="none" stroke-width="0.5" stroke-linecap="butt"/><path d="M234.03698,183.85458l-0.51955,-0.82186c-0.10236,-0.42914 -0.1794,-0.86589 -0.23203,-1.30615l-0.68776,-1.30765c0.01307,-1.1739 0.2176,-2.35673 0.57698,-3.47434c0,0 0.42613,-1.27838 1.68226,-1.00792l0.33028,-0.02937c0.20916,-0.57652 0.76173,-0.98838 1.41048,-0.98838c0.62513,0 1.16095,0.38241 1.38628,0.92606c0.09967,-0.20112 0.20128,-0.39142 0.39774,-0.41043c0.85669,-0.08293 2.91554,0.83418 3.76091,1.26729c1.9293,0.98843 2.63088,1.73045 2.85204,2.95976l0.27605,-0.09202l0.48893,1.46678c0.05699,0.15852 0.08805,0.32941 0.08805,0.50756c0,0.52361 -0.26829,0.98456 -0.6749,1.25288c0.0106,0.04186 0.02044,0.08371 0.02949,0.12552c0,0 0.07043,0.42257 -0.08982,0.8537c-0.11109,0.61631 -0.65458,0.99675 -0.65458,0.99675c-0.76041,0.51396 -1.6093,0.90785 -2.48876,1.19528c-0.0189,0.01108 -0.03798,0.02213 -0.05722,0.03316c-0.4216,0.24161 -0.88474,0.40391 -1.3662,0.49338c-0.00569,0.00363 -0.01139,0.00725 -0.0171,0.01088c-1.11401,0.70687 -2.2161,0.59522 -3.11499,0.0433l-1.00158,-0.31919c-0.62625,-0.63267 -1.16457,-1.28249 -1.59935,-1.94441c-0.45959,-0.11453 -0.77565,-0.43059 -0.77565,-0.43059z" fill="#22cc00" stroke="none" stroke-width="0.5" stroke-linecap="butt"/><path d="M238.61956,183.65148l-1.625,-0.25c0,0 -1.45925,-0.2245 -1.25955,-1.67577c-1.25216,-0.68128 -0.604,-1.97761 -0.604,-1.97761l1.94851,-1.82537c0.98068,0.10047 4.75505,0.02779 4.38913,2.36588c0.88127,0.90364 0.0503,1.94235 0.0503,1.94235l-1.21398,0.30125c-0.29488,1.3332 -1.68541,1.11927 -1.68541,1.11927z" fill="#20c000" stroke="none" stroke-width="0.5" stroke-linecap="butt"/></g></g></svg>