<svg version="1.1" xmlns="http://www.w3.org/2000/svg" xmlns:xlink="http://www.w3.org/1999/xlink" width="57.5" height="30.76126" viewBox="0,0,57.5,30.76126"><g transform="translate(-225.11925,-164.5115)"><g data-paper-data="{&quot;isPaintingLayer&quot;:true}" fill-rule="nonzero" stroke-linejoin="miter" stroke-miterlimit="10" stroke-dasharray="" stroke-dashoffset="0" style="mix-blend-mode: normal"><path d="M225.86925,179.89213c0,-7.94096 6.43742,-14.37838 14.37838,-14.37838c7.94096,0 14.37838,6.43742 14.37838,14.37838c0,7.94096 -6.43742,14.37838 -14.37838,14.37838c-7.94096,0 -14.37838,-6.43742 -14.37838,-14.37838z" fill="#ff9e44" stroke="#000000" stroke-width="1.5" stroke-linecap="butt"/><path d="M240.49988,165.2615l30.27027,10.59459" fill="none" stroke="#000000" stroke-width="1.5" stroke-linecap="round"/><path d="M239.99538,194.52276l30.77477,-10.59459" fill="none" stroke="#000000" stroke-width="1.5" stroke-linecap="round"/><path d="M261.18457,183.42366v-8.07207h20.68468v8.07207z" fill="#000000" stroke="#000000" stroke-width="1.5" stroke-linecap="butt"/><path d="M248.87563,179.47908c-0.67082,0.33541 -1.00623,-0.33541 -1.00623,-0.33541l-0.25983,-0.6967c0,-1.78887 -0.01378,-3.1581 1.30354,-4.50452c0,0 0.53033,-0.53033 1.06066,0c0.53033,0.53033 0,1.06066 0,1.06066c-1.0213,0.99114 -0.8642,2.10046 -0.8642,3.44386l0.10146,0.02588c0,0 0.33541,0.67082 -0.33541,1.00623z" fill="#311f0d" stroke="none" stroke-width="0.5" stroke-linecap="butt"/><path d="M248.80297,188.25654c-0.41602,0.62404 -1.04006,0.20801 -1.04006,0.20801l-0.86134,-0.83824c-0.4082,-2.08067 -0.23874,-3.81273 1.28898,-5.37419c0,0 0.53033,-0.53033 1.06066,0c0.53033,0.53033 0,1.06066 0,1.06066c-1.18716,1.15212 -1.19662,2.46495 -0.87876,4.01935l0.22252,-0.11566c0,0 0.62403,0.41602 0.20801,1.04006z" fill="#311f0d" stroke="none" stroke-width="0.5" stroke-linecap="butt"/><path d="M248.87409,177.00181c0,-0.41422 0.33578,-0.75 0.75,-0.75c0.41422,0 0.75,0.33578 0.75,0.75c0,0.41422 -0.33578,0.75 -0.75,0.75c-0.41422,0 -0.75,-0.33578 -0.75,-0.75z" fill="#279fff" stroke="none" stroke-width="0.5" stroke-linecap="butt"/><path d="M247.79022,185.85342c0,-0.41422 0.33578,-0.75 0.75,-0.75c0.41422,0 0.75,0.33578 0.75,0.75c0,0.41422 -0.33578,0.75 -0.75,0.75c-0.41422,0 -0.75,-0.33578 -0.75,-0.75z" fill="#279fff" stroke="none" stroke-width="0.5" stroke-linecap="butt"/><path d="M277.2628,180.43407v-1.9871h3.6129v1.9871z" fill="#3a3b26" stroke="none" stroke-width="0" stroke-linecap="butt"/><path d="M262.26925,178.44697v-1.44516h6.86451v1.44516z" fill="#3a3b26" stroke="none" stroke-width="0" stroke-linecap="butt"/><path d="M262.21119,181.64052v-1.44516h6.86451v1.44516z" fill="#3a3b26" stroke="none" stroke-width="0" stroke-linecap="butt"/><path d="M249.80474,175.27923c0.3076,0 0.52059,0.09462 0.66806,0.22565c0.82765,0.23123 0.67963,1.11939 0.67963,1.11939l-0.17794,1.06766c-0.0716,0.48201 -0.48716,0.85182 -0.9891,0.85182c-0.50194,0 -0.9175,-0.3698 -0.98909,-0.85182l-0.17794,-1.06766l-0.01361,-0.34504c0,0 0,-1 1,-1z" fill="#ffffff" stroke="none" stroke-width="0.5" stroke-linecap="butt"/><path d="M249.21774,187.52468c-0.94869,0.31623 -1.26491,-0.63245 -1.26491,-0.63245l-0.4126,-1.40009c0.13754,-0.4667 0.27507,-0.9334 0.4126,-1.4001c0,0 0.31623,-0.94868 1.26491,-0.63245c0.84088,0.28029 0.688,1.05746 0.64239,1.23048c0.24441,0.18231 0.40267,0.47371 0.40267,0.80208c0,0.32836 -0.15827,0.61976 -0.40267,0.80208c0.0456,0.17301 0.19849,0.95018 -0.64239,1.23047z" fill="#ffffff" stroke="none" stroke-width="0.5" stroke-linecap="butt"/><path d="M249.16603,176.82116c0,-0.55229 0.44771,-1 1,-1c0.55229,0 1,0.44771 1,1c0,0.55229 -0.44771,1 -1,1c-0.55229,0 -1,-0.44771 -1,-1z" fill="#254aff" stroke="none" stroke-width="0.5" stroke-linecap="butt"/><path d="M248.44345,185.49213c0,-0.55229 0.44771,-1 1,-1c0.55229,0 1,0.44771 1,1c0,0.55229 -0.44771,1 -1,1c-0.55229,0 -1,-0.44771 -1,-1z" fill="#254aff" stroke="none" stroke-width="0.5" stroke-linecap="butt"/><path d="M246.14939,177.99717c-1.74471,1.49546 -1.89694,3.75887 -4.98871,3.75887c-4.05196,0 -12.98544,-1.65081 -10.18337,-7.84492c0.45604,-1.00812 0.13947,-1.88352 0.9861,-2.82804c1.51301,-1.68796 4.03232,-2.45945 6.59526,-2.46077c0.3896,-0.21159 0.83605,-0.33178 1.31058,-0.33178c0.71709,0 1.37007,0.27447 1.85963,0.72408c4.19272,1.0654 7.31666,4.23984 4.43217,8.77261z" fill="#ffa755" stroke="none" stroke-width="0.5" stroke-linecap="butt"/><path d="M243.92017,174.39508c-0.46424,1.1606 -1.62484,0.69636 -1.62484,0.69636l-0.02424,-0.01031l-0.59539,1.90617c0,0 -0.14597,0 -0.33816,-0.04988l-0.1867,0.82115c0,0 -1.11803,0.55901 -1.67705,-0.55902c-0.00825,-0.01651 -0.01615,-0.03291 -0.02369,-0.04918c-0.9659,0.01049 -1.86595,0.42488 -3.09334,0.70815c0,0 -1.21798,0.28107 -1.49906,-0.93691c-0.28107,-1.21799 0.93691,-1.49907 0.93691,-1.49907c0.37251,-0.08596 0.71598,-0.17193 1.03911,-0.25293c-0.61397,0.00375 -1.22795,0.0075 -1.84192,0.01124c0,0 -1.25,0 -1.25,-1.25c0,-1.25 1.25,-1.25 1.25,-1.25c0.30686,0.00227 0.61373,0.00454 0.92059,0.00681c0.22636,-0.22737 0.53968,-0.3681 0.88586,-0.3681h1.26452c0.5019,0 0.93471,0.2958 1.13361,0.72258h0.14029c-0.14699,-0.15602 -0.28963,-0.31581 -0.42773,-0.4788c0,0 -0.80023,-0.96027 0.16004,-1.7605c0.96027,-0.80023 1.76051,0.16004 1.76051,0.16004c0.49021,0.60099 1.06998,1.14389 1.72019,1.56662l0.67408,0.24076c0,0 1.1606,0.46424 0.69636,1.62483zM237.11977,175.05604l-0.08212,0.0625c0.03129,-0.00781 0.0624,-0.01557 0.09333,-0.02327z" fill="#ffab5b" stroke="none" stroke-width="0.5" stroke-linecap="butt"/><path d="M239.90342,185.68986c-0.55901,1.11803 -1.67705,0.55902 -1.67705,0.55902l-0.6025,-0.3384c-1.28662,-1.24851 -3.73514,-0.55614 -5.51848,-0.80671c0,0 -1.23743,-0.17678 -1.06066,-1.41421c0.17677,-1.23744 1.41421,-1.06066 1.41421,-1.06066c2.5508,0.37129 4.60329,-0.29665 6.76539,1.36103l0.12007,0.02289c0,0 1.11803,0.55902 0.55902,1.67705z" fill="#ffab5b" stroke="none" stroke-width="0.5" stroke-linecap="butt"/><path d="M244.12086,184.20019c1.29821,2.35341 -0.56035,3.24289 -2.11823,3.76294c-2.20086,0.73469 -5.26632,0.22416 -7.55274,0.22416c0,0 -1.25,0 -1.25,-1.25c0,-0.1356 0.01471,-0.25648 0.04094,-0.36426c-0.09747,-0.0459 -0.19202,-0.10031 -0.28312,-0.1641c-0.6974,-0.15691 -1.23838,-0.4379 -1.36407,-0.88229c-0.46707,-0.423 -0.36828,-1.11452 -0.36828,-1.11452l0.17805,-1.24632c0.03638,-0.28735 0.17031,-0.54428 0.36757,-0.73657l-0.10575,-0.24433c0.11031,0.02011 0.22316,0.04202 0.33831,0.06547c0.18719,-0.11177 0.40605,-0.17599 0.63991,-0.17599c0.17487,0 0.34135,0.03591 0.49247,0.10075l0.17003,-0.27204l0.80989,0.50618c0.65632,-0.05029 1.36121,0.03965 1.97351,0.25602c0.11036,-0.03189 0.22701,-0.04898 0.34764,-0.04898c0.56198,0 1.03734,0.37086 1.1947,0.88119c0.96113,0.13824 1.87908,0.18456 2.67394,0.05378l1.17955,-0.33701c0.11726,-0.03641 0.24192,-0.05603 0.37116,-0.05603c0.41339,0 0.77992,0.20068 1.00747,0.50993c0.52025,0.05423 1.03027,0.1209 1.25705,0.53201z" fill="#ffa755" stroke="none" stroke-width="0.5" stroke-linecap="butt"/><path d="M245.14212,189.81053c0.55902,1.11803 -0.55902,1.67705 -0.55902,1.67705l-1.2816,0.49326c-1.68602,0 -3.37204,0 -5.05806,0c0,0 -1.25,0 -1.25,-1.25c0,-1.25 1.25,-1.25 1.25,-1.25c1.68602,0 3.37204,0 5.05806,0l0.16356,-0.22932c0,0 1.11803,-0.55902 1.67705,0.55902z" fill="#ffa755" stroke="none" stroke-width="0.5" stroke-linecap="butt"/></g></g></svg>